{
	"asset":{
		"generator":"Khronos glTF Blender I/O v3.6.27",
		"version":"2.0"
	},
	"extensionsUsed":[
		"KHR_lights_punctual",
		"KHR_materials_unlit"
	],
	"extensionsRequired":[
		"KHR_lights_punctual"
	],
	"extensions":{
		"KHR_lights_punctual":{
			"lights":[
				{
					"color":[
						1,
						1,
						1
					],
					"intensity":79.57747154594767,
					"type":"point",
					"name":"Point.002"
				},
				{
					"color":[
						1,
						1,
						1
					],
					"intensity":79.57747154594767,
					"type":"point",
					"name":"Point"
				},
				{
					"color":[
						1,
						1,
						1
					],
					"intensity":79.57747154594767,
					"type":"point",
					"name":"Point.001"
				}
			]
		}
	},
	"scene":0,
	"scenes":[
		{
			"extras":{
				"t3dExportOnSave__":true,
				"t3dExportFormat__":2,
				"t3dPackTextures__":true,
				"t3dExportLights__":1,
				"t3dCameraResolution__":[
					1920,
					1080
				],
				"t3dExportFilepath__":"//animations.gltf",
				"t3dExportCameras__":true,
				"t3dRenderResolutionW__":1920,
				"t3dRenderResolutionH__":1080,
				"t3dSectorRendering__":true,
				"t3dSectorRenderDepth__":0,
				"t3dPlaybackFPS__":60,
				"t3dAnimationSampling__":true,
				"t3dAnimationInterpolation__":true,
				"t3dSectorDetection__":0,
				"t3dCollections__":{
					"Collection":{
						"objects":[
							"Table",
							"Armature"
						],
						"offset":[
							0.0,
							0.0,
							0.0
						]
					},
					"Skinned":{
						"objects":[
							"Armature",
							"Point",
							"Point.001",
							"Point.002"
						],
						"offset":[
							0.0,
							0.0,
							0.0
						]
					}
				},
				"t3dWorlds__":{
					"World":{
						"ambient color":[
							0.06372086703777313,
							0.06372086703777313,
							0.06372086703777313,
							1.0
						],
						"ambient energy":1.0,
						"clear color":[
							0.007000000216066837,
							0.00800000037997961,
							0.009999999776482582,
							1.0
						],
						"fog mode":"OFF",
						"dithered transparency":0.0,
						"fog curve":"LINEAR",
						"fog color":[
							0.0,
							0.0,
							0.0,
							1.0
						],
						"fog range start":0.0,
						"fog range end":1.0
					}
				},
				"t3dCurrentWorld__":"World",
				"t3dView3DCameraData__":[
					{
						"clip_start":0.009999999776482582,
						"clip_end":1000.0,
						"location":[
							-28.83038330078125,
							23.144018173217773,
							-43.02422332763672
						],
						"rotation":[
							[
								-0.8187483549118042,
								0.21953530609607697,
								-0.5305238366127014
							],
							[
								-6.977210773584375e-07,
								0.9240114092826843,
								0.3823648989200592
							],
							[
								0.5741526484489441,
								0.31306102871894836,
								-0.756532609462738
							]
						],
						"fovY":39.597752709049864,
						"perspective":true
					}
				]
			},
			"name":"Scene",
			"nodes":[
				7,
				8,
				9,
				10,
				11
			]
		}
	],
	"nodes":[
		{
			"name":"5",
			"translation":[
				0,
				0.5,
				0
			]
		},
		{
			"children":[
				0
			],
			"name":"4",
			"translation":[
				0,
				0.5,
				0
			]
		},
		{
			"children":[
				1
			],
			"name":"3",
			"translation":[
				0,
				0.5,
				0
			]
		},
		{
			"children":[
				2
			],
			"name":"2",
			"translation":[
				0,
				0.5,
				0
			]
		},
		{
			"children":[
				3
			],
			"name":"1",
			"translation":[
				0,
				0.5,
				0
			]
		},
		{
			"children":[
				4
			],
			"name":"Root"
		},
		{
			"extras":{
				"t3dOriginalLocalPosition__":[
					0.0,
					0.0,
					0.0
				]
			},
			"mesh":0,
			"name":"SkinnedMesh",
			"skin":0
		},
		{
			"children":[
				6,
				5
			],
			"extras":{
				"t3dOriginalLocalPosition__":[
					0.0,
					0.0,
					0.0
				]
			},
			"name":"Armature"
		},
		{
			"extensions":{
				"KHR_lights_punctual":{
					"light":0
				}
			},
			"extras":{
				"t3dOriginalLocalPosition__":[
					4.0,
					0.0,
					1.0
				]
			},
			"name":"Point",
			"rotation":[
				-0.7071068286895752,
				0,
				0,
				0.7071068286895752
			],
			"translation":[
				4,
				1,
				0
			]
		},
		{
			"extensions":{
				"KHR_lights_punctual":{
					"light":1
				}
			},
			"extras":{
				"t3dOriginalLocalPosition__":[
					0.0,
					2.0,
					1.7121608257293701
				]
			},
			"name":"Point.001",
			"rotation":[
				-0.7071068286895752,
				0,
				0,
				0.7071068286895752
			],
			"translation":[
				0,
				1.7121608257293701,
				-2
			]
		},
		{
			"extensions":{
				"KHR_lights_punctual":{
					"light":2
				}
			},
			"extras":{
				"t3dOriginalLocalPosition__":[
					0.0,
					-4.0,
					1.0
				]
			},
			"name":"Point.002",
			"rotation":[
				-0.7071068286895752,
				0,
				0,
				0.7071068286895752
			],
			"translation":[
				0,
				1,
				4
			]
		},
		{
			"extras":{
				"t3dOriginalLocalPosition__":[
					10.0,
					0.0,
					0.0
				]
			},
			"mesh":1,
			"name":"Table",
			"translation":[
				10,
				0,
				0
			]
		}
	],
	"animations":[
		{
			"channels":[
				{
					"sampler":0,
					"target":{
						"node":5,
						"path":"translation"
					}
				},
				{
					"sampler":1,
					"target":{
						"node":5,
						"path":"rotation"
					}
				},
				{
					"sampler":2,
					"target":{
						"node":5,
						"path":"scale"
					}
				},
				{
					"sampler":3,
					"target":{
						"node":4,
						"path":"translation"
					}
				},
				{
					"sampler":4,
					"target":{
						"node":4,
						"path":"rotation"
					}
				},
				{
					"sampler":5,
					"target":{
						"node":4,
						"path":"scale"
					}
				},
				{
					"sampler":6,
					"target":{
						"node":3,
						"path":"translation"
					}
				},
				{
					"sampler":7,
					"target":{
						"node":3,
						"path":"rotation"
					}
				},
				{
					"sampler":8,
					"target":{
						"node":3,
						"path":"scale"
					}
				},
				{
					"sampler":9,
					"target":{
						"node":2,
						"path":"translation"
					}
				},
				{
					"sampler":10,
					"target":{
						"node":2,
						"path":"rotation"
					}
				},
				{
					"sampler":11,
					"target":{
						"node":2,
						"path":"scale"
					}
				},
				{
					"sampler":12,
					"target":{
						"node":1,
						"path":"translation"
					}
				},
				{
					"sampler":13,
					"target":{
						"node":1,
						"path":"rotation"
					}
				},
				{
					"sampler":14,
					"target":{
						"node":1,
						"path":"scale"
					}
				},
				{
					"sampler":15,
					"target":{
						"node":0,
						"path":"translation"
					}
				},
				{
					"sampler":16,
					"target":{
						"node":0,
						"path":"rotation"
					}
				},
				{
					"sampler":17,
					"target":{
						"node":0,
						"path":"scale"
					}
				}
			],
			"name":"ArmatureAction",
			"samplers":[
				{
					"input":12,
					"interpolation":"STEP",
					"output":13
				},
				{
					"input":12,
					"interpolation":"STEP",
					"output":14
				},
				{
					"input":12,
					"interpolation":"STEP",
					"output":15
				},
				{
					"input":12,
					"interpolation":"STEP",
					"output":16
				},
				{
					"input":17,
					"interpolation":"LINEAR",
					"output":18
				},
				{
					"input":12,
					"interpolation":"STEP",
					"output":19
				},
				{
					"input":12,
					"interpolation":"STEP",
					"output":20
				},
				{
					"input":17,
					"interpolation":"LINEAR",
					"output":21
				},
				{
					"input":12,
					"interpolation":"STEP",
					"output":22
				},
				{
					"input":12,
					"interpolation":"STEP",
					"output":23
				},
				{
					"input":17,
					"interpolation":"LINEAR",
					"output":24
				},
				{
					"input":12,
					"interpolation":"STEP",
					"output":25
				},
				{
					"input":12,
					"interpolation":"STEP",
					"output":26
				},
				{
					"input":17,
					"interpolation":"LINEAR",
					"output":27
				},
				{
					"input":12,
					"interpolation":"STEP",
					"output":28
				},
				{
					"input":12,
					"interpolation":"STEP",
					"output":29
				},
				{
					"input":17,
					"interpolation":"LINEAR",
					"output":30
				},
				{
					"input":12,
					"interpolation":"STEP",
					"output":31
				}
			]
		},
		{
			"channels":[
				{
					"sampler":0,
					"target":{
						"node":11,
						"path":"rotation"
					}
				}
			],
			"name":"SmoothRoll",
			"samplers":[
				{
					"input":32,
					"interpolation":"LINEAR",
					"output":33
				}
			]
		},
		{
			"channels":[
				{
					"sampler":0,
					"target":{
						"node":11,
						"path":"rotation"
					}
				}
			],
			"name":"StepRoll",
			"samplers":[
				{
					"input":32,
					"interpolation":"STEP",
					"output":34
				}
			]
		}
	],
	"materials":[
		{
			"extras":{
				"t3dMaterialShadeless__":0
			},
			"name":"TestImage",
			"pbrMetallicRoughness":{
				"baseColorTexture":{
					"index":0
				},
				"metallicFactor":0,
				"roughnessFactor":0
			}
		},
		{
			"extensions":{
				"KHR_materials_unlit":{}
			},
			"extras":{
				"t3dMaterialShadeless__":1
			},
			"name":"Material",
			"pbrMetallicRoughness":{
				"metallicFactor":0,
				"roughnessFactor":0.9
			}
		}
	],
	"meshes":[
		{
			"name":"SkinnedMesh",
			"primitives":[
				{
					"attributes":{
						"POSITION":0,
						"NORMAL":1,
						"TEXCOORD_0":2,
						"JOINTS_0":3,
						"WEIGHTS_0":4
					},
					"indices":5,
					"material":0
				}
			]
		},
		{
			"extras":{
				"t3dVertexColorNames__":[
					"Col"
				],
				"t3dActiveVertexColorIndex__":0
			},
			"name":"Table",
			"primitives":[
				{
					"attributes":{
						"COLOR_0":7,
						"POSITION":8,
						"NORMAL":9,
						"TEXCOORD_0":10
					},
					"indices":11,
					"material":1
				}
			]
		}
	],
	"textures":[
		{
			"sampler":0,
			"source":0
		}
	],
	"images":[
		{
			"bufferView":6,
			"mimeType":"image/png",
			"name":"testimage"
		}
	],
	"skins":[
		{
			"inverseBindMatrices":6,
			"joints":[
				5,
				4,
				3,
				2,
				1,
				0
			],
			"name":"Armature"
		}
	],
	"accessors":[
		{
			"bufferView":0,
			"componentType":5126,
			"count":596,
			"max":[
				1,
				3,
				1
			],
			"min":[
				-1,
				-1,
				-1
			],
			"type":"VEC3"
		},
		{
			"bufferView":1,
			"componentType":5126,
			"count":596,
			"type":"VEC3"
		},
		{
			"bufferView":2,
			"componentType":5126,
			"count":596,
			"type":"VEC2"
		},
		{
			"bufferView":3,
			"componentType":5121,
			"count":596,
			"type":"VEC4"
		},
		{
			"bufferView":4,
			"componentType":5126,
			"count":596,
			"type":"VEC4"
		},
		{
			"bufferView":5,
			"componentType":5123,
			"count":960,
			"type":"SCALAR"
		},
		{
			"bufferView":7,
			"componentType":5126,
			"count":6,
			"type":"MAT4"
		},
		{
			"bufferView":8,
			"componentType":5123,
			"count":104,
			"normalized":true,
			"type":"VEC4"
		},
		{
			"bufferView":9,
			"componentType":5126,
			"count":104,
			"max":[
				1,
				0,
				1
			],
			"min":[
				-1.000000238418579,
				-1.9999998807907104,
				-1
			],
			"type":"VEC3"
		},
		{
			"bufferView":10,
			"componentType":5126,
			"count":104,
			"type":"VEC3"
		},
		{
			"bufferView":11,
			"componentType":5126,
			"count":104,
			"type":"VEC2"
		},
		{
			"bufferView":12,
			"componentType":5123,
			"count":156,
			"type":"SCALAR"
		},
		{
			"bufferView":13,
			"componentType":5126,
			"count":2,
			"max":[
				1.3333333333333333
			],
			"min":[
				0.016666666666666666
			],
			"type":"SCALAR"
		},
		{
			"bufferView":14,
			"componentType":5126,
			"count":2,
			"type":"VEC3"
		},
		{
			"bufferView":15,
			"componentType":5126,
			"count":2,
			"type":"VEC4"
		},
		{
			"bufferView":16,
			"componentType":5126,
			"count":2,
			"type":"VEC3"
		},
		{
			"bufferView":17,
			"componentType":5126,
			"count":2,
			"type":"VEC3"
		},
		{
			"bufferView":18,
			"componentType":5126,
			"count":80,
			"max":[
				1.3333333333333333
			],
			"min":[
				0.016666666666666666
			],
			"type":"SCALAR"
		},
		{
			"bufferView":19,
			"componentType":5126,
			"count":80,
			"type":"VEC4"
		},
		{
			"bufferView":20,
			"componentType":5126,
			"count":2,
			"type":"VEC3"
		},
		{
			"bufferView":21,
			"componentType":5126,
			"count":2,
			"type":"VEC3"
		},
		{
			"bufferView":22,
			"componentType":5126,
			"count":80,
			"type":"VEC4"
		},
		{
			"bufferView":23,
			"componentType":5126,
			"count":2,
			"type":"VEC3"
		},
		{
			"bufferView":24,
			"componentType":5126,
			"count":2,
			"type":"VEC3"
		},
		{
			"bufferView":25,
			"componentType":5126,
			"count":80,
			"type":"VEC4"
		},
		{
			"bufferView":26,
			"componentType":5126,
			"count":2,
			"type":"VEC3"
		},
		{
			"bufferView":27,
			"componentType":5126,
			"count":2,
			"type":"VEC3"
		},
		{
			"bufferView":28,
			"componentType":5126,
			"count":80,
			"type":"VEC4"
		},
		{
			"bufferView":29,
			"componentType":5126,
			"count":2,
			"type":"VEC3"
		},
		{
			"bufferView":30,
			"componentType":5126,
			"count":2,
			"type":"VEC3"
		},
		{
			"bufferView":31,
			"componentType":5126,
			"count":80,
			"type":"VEC4"
		},
		{
			"bufferView":32,
			"componentType":5126,
			"count":2,
			"type":"VEC3"
		},
		{
			"bufferView":33,
			"componentType":5126,
			"count":40,
			"max":[
				0.6666666666666666
			],
			"min":[
				0.016666666666666666
			],
			"type":"SCALAR"
		},
		{
			"bufferView":34,
			"componentType":5126,
			"count":40,
			"type":"VEC4"
		},
		{
			"bufferView":35,
			"componentType":5126,
			"count":40,
			"type":"VEC4"
		}
	],
	"bufferViews":[
		{
			"buffer":0,
			"byteLength":7152,
			"byteOffset":0,
			"target":34962
		},
		{
			"buffer":0,
			"byteLength":7152,
			"byteOffset":7152,
			"target":34962
		},
		{
			"buffer":0,
			"byteLength":4768,
			"byteOffset":14304,
			"target":34962
		},
		{
			"buffer":0,
			"byteLength":2384,
			"byteOffset":19072,
			"target":34962
		},
		{
			"buffer":0,
			"byteLength":9536,
			"byteOffset":21456,
			"target":34962
		},
		{
			"buffer":0,
			"byteLength":1920,
			"byteOffset":30992,
			"target":34963
		},
		{
			"buffer":0,
			"byteLength":195,
			"byteOffset":32912
		},
		{
			"buffer":0,
			"byteLength":384,
			"byteOffset":33108
		},
		{
			"buffer":0,
			"byteLength":832,
			"byteOffset":33492,
			"target":34962
		},
		{
			"buffer":0,
			"byteLength":1248,
			"byteOffset":34324,
			"target":34962
		},
		{
			"buffer":0,
			"byteLength":1248,
			"byteOffset":35572,
			"target":34962
		},
		{
			"buffer":0,
			"byteLength":832,
			"byteOffset":36820,
			"target":34962
		},
		{
			"buffer":0,
			"byteLength":312,
			"byteOffset":37652,
			"target":34963
		},
		{
			"buffer":0,
			"byteLength":8,
			"byteOffset":37964
		},
		{
			"buffer":0,
			"byteLength":24,
			"byteOffset":37972
		},
		{
			"buffer":0,
			"byteLength":32,
			"byteOffset":37996
		},
		{
			"buffer":0,
			"byteLength":24,
			"byteOffset":38028
		},
		{
			"buffer":0,
			"byteLength":24,
			"byteOffset":38052
		},
		{
			"buffer":0,
			"byteLength":320,
			"byteOffset":38076
		},
		{
			"buffer":0,
			"byteLength":1280,
			"byteOffset":38396
		},
		{
			"buffer":0,
			"byteLength":24,
			"byteOffset":39676
		},
		{
			"buffer":0,
			"byteLength":24,
			"byteOffset":39700
		},
		{
			"buffer":0,
			"byteLength":1280,
			"byteOffset":39724
		},
		{
			"buffer":0,
			"byteLength":24,
			"byteOffset":41004
		},
		{
			"buffer":0,
			"byteLength":24,
			"byteOffset":41028
		},
		{
			"buffer":0,
			"byteLength":1280,
			"byteOffset":41052
		},
		{
			"buffer":0,
			"byteLength":24,
			"byteOffset":42332
		},
		{
			"buffer":0,
			"byteLength":24,
			"byteOffset":42356
		},
		{
			"buffer":0,
			"byteLength":1280,
			"byteOffset":42380
		},
		{
			"buffer":0,
			"byteLength":24,
			"byteOffset":43660
		},
		{
			"buffer":0,
			"byteLength":24,
			"byteOffset":43684
		},
		{
			"buffer":0,
			"byteLength":1280,
			"byteOffset":43708
		},
		{
			"buffer":0,
			"byteLength":24,
			"byteOffset":44988
		},
		{
			"buffer":0,
			"byteLength":160,
			"byteOffset":45012
		},
		{
			"buffer":0,
			"byteLength":640,
			"byteOffset":45172
		},
		{
			"buffer":0,
			"byteLength":640,
			"byteOffset":45812
		}
	],
	"samplers":[
		{
			"magFilter":9729,
			"minFilter":9987
		}
	],
	"buffers":[
		{
			"byteLength":46452,
			"uri":"data:application/octet-stream;base64,"
		}
	]
}
