{
	"asset":{
		"generator":"Khronos glTF Blender I/O v3.6.27",
		"version":"2.0"
	},
	"extensionsUsed":[
		"KHR_lights_punctual",
		"KHR_materials_unlit"
	],
	"extensionsRequired":[
		"KHR_lights_punctual"
	],
	"extensions":{
		"KHR_lights_punctual":{
			"lights":[
				{
					"color":[
						1,
						1,
						1
					],
					"intensity":0.11651167205092239,
					"type":"point",
					"name":"Point.001"
				}
			]
		}
	},
	"scene":0,
	"scenes":[
		{
			"extras":{
				"t3dExportOnSave__":true,
				"t3dExportFormat__":2,
				"t3dExportLights__":1,
				"t3dExportCameras__":true,
				"t3dExportFilepath__":"",
				"t3dPackTextures__":true,
				"t3dRenderResolutionW__":640,
				"t3dRenderResolutionH__":360,
				"t3dSectorRendering__":false,
				"t3dSectorRenderDepth__":0,
				"t3dSectorDetection__":0,
				"t3dPlaybackFPS__":60,
				"t3dAnimationSampling__":true,
				"t3dAnimationInterpolation__":true,
				"t3dCameraResolution__":[
					1920,
					1080
				],
				"t3dCollections__":{},
				"t3dWorlds__":{
					"World":{
						"ambient color":[
							0.04445478320121765,
							0.04445478320121765,
							0.04445478320121765,
							1.0
						],
						"ambient energy":1.0,
						"clear color":[
							0.007000000216066837,
							0.00800000037997961,
							0.009999999776482582,
							1.0
						],
						"fog mode":"OFF",
						"dithered transparency":0.0,
						"fog curve":"LINEAR",
						"fog color":[
							0.0,
							0.0,
							0.0,
							1.0
						],
						"fog range start":0.0,
						"fog range end":1.0
					}
				},
				"t3dCurrentWorld__":"World",
				"t3dView3DCameraData__":[
					{
						"clip_start":0.009999999776482582,
						"clip_end":1000.0,
						"location":[
							50.766605377197266,
							17.706384658813477,
							11.933001518249512
						],
						"rotation":[
							[
								0.2970407009124756,
								-0.29253140091896057,
								0.9089512228965759
							],
							[
								3.4390914152027108e-06,
								0.9519164562225342,
								0.30635789036750793
							],
							[
								-0.9548648595809937,
								-0.0909975990653038,
								0.28275901079177856
							]
						],
						"fovY":39.597752709049864,
						"perspective":true
					}
				]
			},
			"name":"Scene",
			"nodes":[
				7,
				8,
				10
			]
		}
	],
	"nodes":[
		{
			"name":"5",
			"rotation":[
				-7.105427357601002e-15,
				7.105427357601002e-15,
				-2.877388958237621e-22,
				1
			],
			"translation":[
				2.3797525275946467e-22,
				0.5,
				0
			]
		},
		{
			"children":[
				0
			],
			"name":"4",
			"rotation":[
				7.105427357601002e-15,
				-7.105427357601002e-15,
				2.6812652629897043e-22,
				1
			],
			"translation":[
				-1.4885780037971526e-22,
				0.5,
				7.105427357601002e-15
			]
		},
		{
			"children":[
				1
			],
			"name":"3",
			"rotation":[
				2.638236580154024e-16,
				1.0025485727464563e-23,
				-6.196985193385043e-23,
				1
			],
			"translation":[
				1.6091700975274575e-22,
				0.49999988079071045,
				0
			]
		},
		{
			"children":[
				2
			],
			"name":"2",
			"rotation":[
				-1.6444451162716677e-15,
				1.7763568394002505e-15,
				-6.138598126801653e-23,
				1
			],
			"translation":[
				-2.93519050070272e-23,
				0.4999999403953552,
				1.7763568394002505e-15
			]
		},
		{
			"children":[
				3
			],
			"name":"1",
			"rotation":[
				1.319117231285828e-16,
				1.0025483360881847e-23,
				-3.931275304963976e-24,
				1
			],
			"translation":[
				-5.293955920339377e-23,
				0.4999999403953552,
				1.7763568394002505e-15
			]
		},
		{
			"children":[
				4
			],
			"name":"Root",
			"rotation":[
				-8.557136332854043e-09,
				1.7114272665708086e-08,
				-2.928983286277023e-16,
				1
			]
		},
		{
			"extras":{
				"t3dOriginalLocalPosition__":[
					0.0,
					0.0,
					0.0
				]
			},
			"mesh":0,
			"name":"SkinnedMesh",
			"skin":0
		},
		{
			"children":[
				6,
				5
			],
			"extras":{
				"t3dOriginalLocalPosition__":[
					0.0,
					0.0,
					0.0
				]
			},
			"name":"Armature"
		},
		{
			"extensions":{
				"KHR_lights_punctual":{
					"light":0
				}
			},
			"extras":{
				"t3dOriginalLocalPosition__":[
					4.0,
					0.0,
					1.0
				]
			},
			"name":"Point",
			"rotation":[
				-0.7071068286895752,
				0,
				0,
				0.7071068286895752
			],
			"translation":[
				4,
				1,
				0
			]
		},
		{
			"extras":{
				"t3dOriginalLocalPosition__":[
					0.0,
					0.0,
					1.0098087787628174
				]
			},
			"mesh":1,
			"name":"Sphere",
			"translation":[
				0,
				1.0098087787628174,
				0
			]
		},
		{
			"children":[
				9
			],
			"extras":{
				"t3dOriginalLocalPosition__":[
					10.0,
					0.0,
					0.0
				]
			},
			"mesh":2,
			"name":"Table",
			"translation":[
				10,
				0,
				0
			]
		}
	],
	"animations":[
		{
			"channels":[
				{
					"sampler":0,
					"target":{
						"node":5,
						"path":"translation"
					}
				},
				{
					"sampler":1,
					"target":{
						"node":5,
						"path":"rotation"
					}
				},
				{
					"sampler":2,
					"target":{
						"node":5,
						"path":"scale"
					}
				},
				{
					"sampler":3,
					"target":{
						"node":4,
						"path":"translation"
					}
				},
				{
					"sampler":4,
					"target":{
						"node":4,
						"path":"rotation"
					}
				},
				{
					"sampler":5,
					"target":{
						"node":4,
						"path":"scale"
					}
				},
				{
					"sampler":6,
					"target":{
						"node":3,
						"path":"translation"
					}
				},
				{
					"sampler":7,
					"target":{
						"node":3,
						"path":"rotation"
					}
				},
				{
					"sampler":8,
					"target":{
						"node":3,
						"path":"scale"
					}
				},
				{
					"sampler":9,
					"target":{
						"node":2,
						"path":"translation"
					}
				},
				{
					"sampler":10,
					"target":{
						"node":2,
						"path":"rotation"
					}
				},
				{
					"sampler":11,
					"target":{
						"node":2,
						"path":"scale"
					}
				},
				{
					"sampler":12,
					"target":{
						"node":1,
						"path":"translation"
					}
				},
				{
					"sampler":13,
					"target":{
						"node":1,
						"path":"rotation"
					}
				},
				{
					"sampler":14,
					"target":{
						"node":1,
						"path":"scale"
					}
				},
				{
					"sampler":15,
					"target":{
						"node":0,
						"path":"translation"
					}
				},
				{
					"sampler":16,
					"target":{
						"node":0,
						"path":"rotation"
					}
				},
				{
					"sampler":17,
					"target":{
						"node":0,
						"path":"scale"
					}
				}
			],
			"name":"ArmatureAction_Armature",
			"samplers":[
				{
					"input":17,
					"interpolation":"STEP",
					"output":18
				},
				{
					"input":17,
					"interpolation":"STEP",
					"output":19
				},
				{
					"input":17,
					"interpolation":"STEP",
					"output":20
				},
				{
					"input":17,
					"interpolation":"STEP",
					"output":21
				},
				{
					"input":22,
					"interpolation":"LINEAR",
					"output":23
				},
				{
					"input":17,
					"interpolation":"STEP",
					"output":24
				},
				{
					"input":17,
					"interpolation":"STEP",
					"output":25
				},
				{
					"input":22,
					"interpolation":"LINEAR",
					"output":26
				},
				{
					"input":17,
					"interpolation":"STEP",
					"output":27
				},
				{
					"input":17,
					"interpolation":"STEP",
					"output":28
				},
				{
					"input":22,
					"interpolation":"LINEAR",
					"output":29
				},
				{
					"input":17,
					"interpolation":"STEP",
					"output":30
				},
				{
					"input":17,
					"interpolation":"STEP",
					"output":31
				},
				{
					"input":22,
					"interpolation":"LINEAR",
					"output":32
				},
				{
					"input":17,
					"interpolation":"STEP",
					"output":33
				},
				{
					"input":17,
					"interpolation":"STEP",
					"output":34
				},
				{
					"input":22,
					"interpolation":"LINEAR",
					"output":35
				},
				{
					"input":17,
					"interpolation":"STEP",
					"output":36
				}
			]
		},
		{
			"channels":[
				{
					"sampler":0,
					"target":{
						"node":5,
						"path":"translation"
					}
				},
				{
					"sampler":1,
					"target":{
						"node":5,
						"path":"rotation"
					}
				},
				{
					"sampler":2,
					"target":{
						"node":5,
						"path":"scale"
					}
				},
				{
					"sampler":3,
					"target":{
						"node":4,
						"path":"translation"
					}
				},
				{
					"sampler":4,
					"target":{
						"node":4,
						"path":"rotation"
					}
				},
				{
					"sampler":5,
					"target":{
						"node":4,
						"path":"scale"
					}
				},
				{
					"sampler":6,
					"target":{
						"node":3,
						"path":"translation"
					}
				},
				{
					"sampler":7,
					"target":{
						"node":3,
						"path":"rotation"
					}
				},
				{
					"sampler":8,
					"target":{
						"node":3,
						"path":"scale"
					}
				},
				{
					"sampler":9,
					"target":{
						"node":2,
						"path":"translation"
					}
				},
				{
					"sampler":10,
					"target":{
						"node":2,
						"path":"rotation"
					}
				},
				{
					"sampler":11,
					"target":{
						"node":2,
						"path":"scale"
					}
				},
				{
					"sampler":12,
					"target":{
						"node":1,
						"path":"translation"
					}
				},
				{
					"sampler":13,
					"target":{
						"node":1,
						"path":"rotation"
					}
				},
				{
					"sampler":14,
					"target":{
						"node":1,
						"path":"scale"
					}
				},
				{
					"sampler":15,
					"target":{
						"node":0,
						"path":"translation"
					}
				},
				{
					"sampler":16,
					"target":{
						"node":0,
						"path":"rotation"
					}
				},
				{
					"sampler":17,
					"target":{
						"node":0,
						"path":"scale"
					}
				}
			],
			"name":"ArmatureAction",
			"samplers":[
				{
					"input":17,
					"interpolation":"STEP",
					"output":37
				},
				{
					"input":17,
					"interpolation":"STEP",
					"output":38
				},
				{
					"input":17,
					"interpolation":"STEP",
					"output":39
				},
				{
					"input":17,
					"interpolation":"STEP",
					"output":40
				},
				{
					"input":22,
					"interpolation":"LINEAR",
					"output":41
				},
				{
					"input":17,
					"interpolation":"STEP",
					"output":42
				},
				{
					"input":17,
					"interpolation":"STEP",
					"output":43
				},
				{
					"input":22,
					"interpolation":"LINEAR",
					"output":44
				},
				{
					"input":17,
					"interpolation":"STEP",
					"output":45
				},
				{
					"input":17,
					"interpolation":"STEP",
					"output":46
				},
				{
					"input":22,
					"interpolation":"LINEAR",
					"output":47
				},
				{
					"input":17,
					"interpolation":"STEP",
					"output":48
				},
				{
					"input":17,
					"interpolation":"STEP",
					"output":49
				},
				{
					"input":22,
					"interpolation":"LINEAR",
					"output":50
				},
				{
					"input":17,
					"interpolation":"STEP",
					"output":51
				},
				{
					"input":17,
					"interpolation":"STEP",
					"output":52
				},
				{
					"input":22,
					"interpolation":"LINEAR",
					"output":53
				},
				{
					"input":17,
					"interpolation":"STEP",
					"output":54
				}
			]
		},
		{
			"channels":[
				{
					"sampler":0,
					"target":{
						"node":10,
						"path":"rotation"
					}
				}
			],
			"name":"SmoothRoll",
			"samplers":[
				{
					"input":55,
					"interpolation":"LINEAR",
					"output":56
				}
			]
		},
		{
			"channels":[
				{
					"sampler":0,
					"target":{
						"node":10,
						"path":"rotation"
					}
				}
			],
			"name":"StepRoll",
			"samplers":[
				{
					"input":55,
					"interpolation":"STEP",
					"output":57
				}
			]
		}
	],
	"materials":[
		{
			"extras":{
				"t3dMaterialShadeless__":0
			},
			"name":"TestImage.001",
			"pbrMetallicRoughness":{
				"baseColorTexture":{
					"index":0
				},
				"metallicFactor":0,
				"roughnessFactor":0
			}
		},
		{
			"extensions":{
				"KHR_materials_unlit":{}
			},
			"extras":{
				"t3dMaterialShadeless__":1
			},
			"name":"Material.002",
			"pbrMetallicRoughness":{
				"metallicFactor":0,
				"roughnessFactor":0.9
			}
		}
	],
	"meshes":[
		{
			"name":"SkinnedMesh.001",
			"primitives":[
				{
					"attributes":{
						"POSITION":0,
						"NORMAL":1,
						"TEXCOORD_0":2,
						"JOINTS_0":3,
						"WEIGHTS_0":4
					},
					"indices":5,
					"material":0
				}
			]
		},
		{
			"extras":{
				"t3dVertexColorNames__":[
					"Col"
				],
				"t3dActiveVertexColorIndex__":0
			},
			"name":"Sphere.001",
			"primitives":[
				{
					"attributes":{
						"COLOR_0":7,
						"POSITION":8,
						"NORMAL":9,
						"TEXCOORD_0":10
					},
					"indices":11,
					"material":1
				}
			]
		},
		{
			"extras":{
				"t3dVertexColorNames__":[
					"Col"
				],
				"t3dActiveVertexColorIndex__":0
			},
			"name":"Table.001",
			"primitives":[
				{
					"attributes":{
						"COLOR_0":12,
						"POSITION":13,
						"NORMAL":14,
						"TEXCOORD_0":15
					},
					"indices":16,
					"material":1
				}
			]
		}
	],
	"textures":[
		{
			"sampler":0,
			"source":0
		}
	],
	"images":[
		{
			"bufferView":6,
			"mimeType":"image/png",
			"name":"testimage"
		}
	],
	"skins":[
		{
			"inverseBindMatrices":6,
			"joints":[
				5,
				4,
				3,
				2,
				1,
				0
			],
			"name":"Armature"
		}
	],
	"accessors":[
		{
			"bufferView":0,
			"componentType":5126,
			"count":596,
			"max":[
				1,
				3,
				1
			],
			"min":[
				-1,
				-1,
				-1
			],
			"type":"VEC3"
		},
		{
			"bufferView":1,
			"componentType":5126,
			"count":596,
			"type":"VEC3"
		},
		{
			"bufferView":2,
			"componentType":5126,
			"count":596,
			"type":"VEC2"
		},
		{
			"bufferView":3,
			"componentType":5121,
			"count":596,
			"type":"VEC4"
		},
		{
			"bufferView":4,
			"componentType":5126,
			"count":596,
			"type":"VEC4"
		},
		{
			"bufferView":5,
			"componentType":5123,
			"count":960,
			"type":"SCALAR"
		},
		{
			"bufferView":7,
			"componentType":5126,
			"count":6,
			"type":"MAT4"
		},
		{
			"bufferView":8,
			"componentType":5123,
			"count":2008,
			"normalized":true,
			"type":"VEC4"
		},
		{
			"bufferView":9,
			"componentType":5126,
			"count":2008,
			"max":[
				0.9999997019767761,
				1,
				0.9999994039535522
			],
			"min":[
				-0.9999990463256836,
				-1,
				-0.9999987483024597
			],
			"type":"VEC3"
		},
		{
			"bufferView":10,
			"componentType":5126,
			"count":2008,
			"type":"VEC3"
		},
		{
			"bufferView":11,
			"componentType":5126,
			"count":2008,
			"type":"VEC2"
		},
		{
			"bufferView":12,
			"componentType":5123,
			"count":2880,
			"type":"SCALAR"
		},
		{
			"bufferView":13,
			"componentType":5123,
			"count":104,
			"normalized":true,
			"type":"VEC4"
		},
		{
			"bufferView":14,
			"componentType":5126,
			"count":104,
			"max":[
				1,
				0,
				1
			],
			"min":[
				-1.000000238418579,
				-1.9999998807907104,
				-1
			],
			"type":"VEC3"
		},
		{
			"bufferView":15,
			"componentType":5126,
			"count":104,
			"type":"VEC3"
		},
		{
			"bufferView":16,
			"componentType":5126,
			"count":104,
			"type":"VEC2"
		},
		{
			"bufferView":17,
			"componentType":5123,
			"count":156,
			"type":"SCALAR"
		},
		{
			"bufferView":18,
			"componentType":5126,
			"count":2,
			"max":[
				1.3333333333333333
			],
			"min":[
				0.016666666666666666
			],
			"type":"SCALAR"
		},
		{
			"bufferView":19,
			"componentType":5126,
			"count":2,
			"type":"VEC3"
		},
		{
			"bufferView":20,
			"componentType":5126,
			"count":2,
			"type":"VEC4"
		},
		{
			"bufferView":21,
			"componentType":5126,
			"count":2,
			"type":"VEC3"
		},
		{
			"bufferView":22,
			"componentType":5126,
			"count":2,
			"type":"VEC3"
		},
		{
			"bufferView":23,
			"componentType":5126,
			"count":80,
			"max":[
				1.3333333333333333
			],
			"min":[
				0.016666666666666666
			],
			"type":"SCALAR"
		},
		{
			"bufferView":24,
			"componentType":5126,
			"count":80,
			"type":"VEC4"
		},
		{
			"bufferView":25,
			"componentType":5126,
			"count":2,
			"type":"VEC3"
		},
		{
			"bufferView":26,
			"componentType":5126,
			"count":2,
			"type":"VEC3"
		},
		{
			"bufferView":27,
			"componentType":5126,
			"count":80,
			"type":"VEC4"
		},
		{
			"bufferView":28,
			"componentType":5126,
			"count":2,
			"type":"VEC3"
		},
		{
			"bufferView":29,
			"componentType":5126,
			"count":2,
			"type":"VEC3"
		},
		{
			"bufferView":30,
			"componentType":5126,
			"count":80,
			"type":"VEC4"
		},
		{
			"bufferView":31,
			"componentType":5126,
			"count":2,
			"type":"VEC3"
		},
		{
			"bufferView":32,
			"componentType":5126,
			"count":2,
			"type":"VEC3"
		},
		{
			"bufferView":33,
			"componentType":5126,
			"count":80,
			"type":"VEC4"
		},
		{
			"bufferView":34,
			"componentType":5126,
			"count":2,
			"type":"VEC3"
		},
		{
			"bufferView":35,
			"componentType":5126,
			"count":2,
			"type":"VEC3"
		},
		{
			"bufferView":36,
			"componentType":5126,
			"count":80,
			"type":"VEC4"
		},
		{
			"bufferView":37,
			"componentType":5126,
			"count":2,
			"type":"VEC3"
		},
		{
			"bufferView":38,
			"componentType":5126,
			"count":2,
			"type":"VEC3"
		},
		{
			"bufferView":39,
			"componentType":5126,
			"count":2,
			"type":"VEC4"
		},
		{
			"bufferView":40,
			"componentType":5126,
			"count":2,
			"type":"VEC3"
		},
		{
			"bufferView":41,
			"componentType":5126,
			"count":2,
			"type":"VEC3"
		},
		{
			"bufferView":42,
			"componentType":5126,
			"count":80,
			"type":"VEC4"
		},
		{
			"bufferView":43,
			"componentType":5126,
			"count":2,
			"type":"VEC3"
		},
		{
			"bufferView":44,
			"componentType":5126,
			"count":2,
			"type":"VEC3"
		},
		{
			"bufferView":45,
			"componentType":5126,
			"count":80,
			"type":"VEC4"
		},
		{
			"bufferView":46,
			"componentType":5126,
			"count":2,
			"type":"VEC3"
		},
		{
			"bufferView":47,
			"componentType":5126,
			"count":2,
			"type":"VEC3"
		},
		{
			"bufferView":48,
			"componentType":5126,
			"count":80,
			"type":"VEC4"
		},
		{
			"bufferView":49,
			"componentType":5126,
			"count":2,
			"type":"VEC3"
		},
		{
			"bufferView":50,
			"componentType":5126,
			"count":2,
			"type":"VEC3"
		},
		{
			"bufferView":51,
			"componentType":5126,
			"count":80,
			"type":"VEC4"
		},
		{
			"bufferView":52,
			"componentType":5126,
			"count":2,
			"type":"VEC3"
		},
		{
			"bufferView":53,
			"componentType":5126,
			"count":2,
			"type":"VEC3"
		},
		{
			"bufferView":54,
			"componentType":5126,
			"count":80,
			"type":"VEC4"
		},
		{
			"bufferView":55,
			"componentType":5126,
			"count":2,
			"type":"VEC3"
		},
		{
			"bufferView":56,
			"componentType":5126,
			"count":40,
			"max":[
				0.6666666666666666
			],
			"min":[
				0.016666666666666666
			],
			"type":"SCALAR"
		},
		{
			"bufferView":57,
			"componentType":5126,
			"count":40,
			"type":"VEC4"
		},
		{
			"bufferView":58,
			"componentType":5126,
			"count":40,
			"type":"VEC4"
		}
	],
	"bufferViews":[
		{
			"buffer":0,
			"byteLength":7152,
			"byteOffset":0,
			"target":34962
		},
		{
			"buffer":0,
			"byteLength":7152,
			"byteOffset":7152,
			"target":34962
		},
		{
			"buffer":0,
			"byteLength":4768,
			"byteOffset":14304,
			"target":34962
		},
		{
			"buffer":0,
			"byteLength":2384,
			"byteOffset":19072,
			"target":34962
		},
		{
			"buffer":0,
			"byteLength":9536,
			"byteOffset":21456,
			"target":34962
		},
		{
			"buffer":0,
			"byteLength":1920,
			"byteOffset":30992,
			"target":34963
		},
		{
			"buffer":0,
			"byteLength":195,
			"byteOffset":32912
		},
		{
			"buffer":0,
			"byteLength":384,
			"byteOffset":33108
		},
		{
			"buffer":0,
			"byteLength":16064,
			"byteOffset":33492,
			"target":34962
		},
		{
			"buffer":0,
			"byteLength":24096,
			"byteOffset":49556,
			"target":34962
		},
		{
			"buffer":0,
			"byteLength":24096,
			"byteOffset":73652,
			"target":34962
		},
		{
			"buffer":0,
			"byteLength":16064,
			"byteOffset":97748,
			"target":34962
		},
		{
			"buffer":0,
			"byteLength":5760,
			"byteOffset":113812,
			"target":34963
		},
		{
			"buffer":0,
			"byteLength":832,
			"byteOffset":119572,
			"target":34962
		},
		{
			"buffer":0,
			"byteLength":1248,
			"byteOffset":120404,
			"target":34962
		},
		{
			"buffer":0,
			"byteLength":1248,
			"byteOffset":121652,
			"target":34962
		},
		{
			"buffer":0,
			"byteLength":832,
			"byteOffset":122900,
			"target":34962
		},
		{
			"buffer":0,
			"byteLength":312,
			"byteOffset":123732,
			"target":34963
		},
		{
			"buffer":0,
			"byteLength":8,
			"byteOffset":124044
		},
		{
			"buffer":0,
			"byteLength":24,
			"byteOffset":124052
		},
		{
			"buffer":0,
			"byteLength":32,
			"byteOffset":124076
		},
		{
			"buffer":0,
			"byteLength":24,
			"byteOffset":124108
		},
		{
			"buffer":0,
			"byteLength":24,
			"byteOffset":124132
		},
		{
			"buffer":0,
			"byteLength":320,
			"byteOffset":124156
		},
		{
			"buffer":0,
			"byteLength":1280,
			"byteOffset":124476
		},
		{
			"buffer":0,
			"byteLength":24,
			"byteOffset":125756
		},
		{
			"buffer":0,
			"byteLength":24,
			"byteOffset":125780
		},
		{
			"buffer":0,
			"byteLength":1280,
			"byteOffset":125804
		},
		{
			"buffer":0,
			"byteLength":24,
			"byteOffset":127084
		},
		{
			"buffer":0,
			"byteLength":24,
			"byteOffset":127108
		},
		{
			"buffer":0,
			"byteLength":1280,
			"byteOffset":127132
		},
		{
			"buffer":0,
			"byteLength":24,
			"byteOffset":128412
		},
		{
			"buffer":0,
			"byteLength":24,
			"byteOffset":128436
		},
		{
			"buffer":0,
			"byteLength":1280,
			"byteOffset":128460
		},
		{
			"buffer":0,
			"byteLength":24,
			"byteOffset":129740
		},
		{
			"buffer":0,
			"byteLength":24,
			"byteOffset":129764
		},
		{
			"buffer":0,
			"byteLength":1280,
			"byteOffset":129788
		},
		{
			"buffer":0,
			"byteLength":24,
			"byteOffset":131068
		},
		{
			"buffer":0,
			"byteLength":24,
			"byteOffset":131092
		},
		{
			"buffer":0,
			"byteLength":32,
			"byteOffset":131116
		},
		{
			"buffer":0,
			"byteLength":24,
			"byteOffset":131148
		},
		{
			"buffer":0,
			"byteLength":24,
			"byteOffset":131172
		},
		{
			"buffer":0,
			"byteLength":1280,
			"byteOffset":131196
		},
		{
			"buffer":0,
			"byteLength":24,
			"byteOffset":132476
		},
		{
			"buffer":0,
			"byteLength":24,
			"byteOffset":132500
		},
		{
			"buffer":0,
			"byteLength":1280,
			"byteOffset":132524
		},
		{
			"buffer":0,
			"byteLength":24,
			"byteOffset":133804
		},
		{
			"buffer":0,
			"byteLength":24,
			"byteOffset":133828
		},
		{
			"buffer":0,
			"byteLength":1280,
			"byteOffset":133852
		},
		{
			"buffer":0,
			"byteLength":24,
			"byteOffset":135132
		},
		{
			"buffer":0,
			"byteLength":24,
			"byteOffset":135156
		},
		{
			"buffer":0,
			"byteLength":1280,
			"byteOffset":135180
		},
		{
			"buffer":0,
			"byteLength":24,
			"byteOffset":136460
		},
		{
			"buffer":0,
			"byteLength":24,
			"byteOffset":136484
		},
		{
			"buffer":0,
			"byteLength":1280,
			"byteOffset":136508
		},
		{
			"buffer":0,
			"byteLength":24,
			"byteOffset":137788
		},
		{
			"buffer":0,
			"byteLength":160,
			"byteOffset":137812
		},
		{
			"buffer":0,
			"byteLength":640,
			"byteOffset":137972
		},
		{
			"buffer":0,
			"byteLength":640,
			"byteOffset":138612
		}
	],
	"samplers":[
		{
			"magFilter":9729,
			"minFilter":9987
		}
	],
	"buffers":[
		{
			"byteLength":139252,
			"uri":"data:application/octet-stream;base64,"
		}
	]
}
