{
	"asset":{
		"generator":"Khronos glTF Blender I/O v3.6.28",
		"version":"2.0"
	},
	"scene":0,
	"scenes":[
		{
			"name":"Scene",
			"nodes":[
				2,
				5
			]
		}
	],
	"nodes":[
		{
			"mesh":0,
			"name":"body"
		},
		{
			"mesh":1,
			"name":"glass"
		},
		{
			"children":[
				0,
				1
			],
			"name":"man_ct",
			"translation":[
				0,
				0,
				-6.64266300201416
			]
		},
		{
			"mesh":2,
			"name":"Cylinder"
		},
		{
			"mesh":3,
			"name":"Plane"
		},
		{
			"children":[
				3,
				4
			],
			"name":"map"
		}
	],
	"materials":[
		{
			"doubleSided":true,
			"name":"ct_urban",
			"pbrMetallicRoughness":{
				"baseColorTexture":{
					"index":0
				},
				"metallicRoughnessTexture":{
					"index":1
				}
			}
		},
		{
			"alphaMode":"BLEND",
			"doubleSided":true,
			"name":"ct_urban_glass",
			"pbrMetallicRoughness":{
				"baseColorTexture":{
					"index":2
				},
				"metallicRoughnessTexture":{
					"index":3
				}
			}
		},
		{
			"doubleSided":true,
			"name":"Material.003",
			"pbrMetallicRoughness":{
				"baseColorTexture":{
					"index":4
				},
				"metallicFactor":0,
				"roughnessFactor":0.5
			}
		},
		{
			"doubleSided":true,
			"name":"Material.001",
			"pbrMetallicRoughness":{
				"baseColorTexture":{
					"index":5
				},
				"metallicFactor":0,
				"roughnessFactor":0.5
			}
		}
	],
	"meshes":[
		{
			"name":"Object_0",
			"primitives":[
				{
					"attributes":{
						"POSITION":0,
						"NORMAL":1,
						"TEXCOORD_0":2
					},
					"indices":3,
					"material":0
				}
			]
		},
		{
			"name":"Object_1",
			"primitives":[
				{
					"attributes":{
						"POSITION":4,
						"NORMAL":5,
						"TEXCOORD_0":6
					},
					"indices":7,
					"material":1
				}
			]
		},
		{
			"extras":{
				"static":true
			},
			"name":"Cylinder",
			"primitives":[
				{
					"attributes":{
						"POSITION":8,
						"NORMAL":9,
						"TEXCOORD_0":10
					},
					"indices":11,
					"material":2
				}
			]
		},
		{
			"name":"Plane",
			"primitives":[
				{
					"attributes":{
						"POSITION":12,
						"NORMAL":13,
						"TEXCOORD_0":14
					},
					"indices":15,
					"material":3
				}
			]
		}
	],
	"textures":[
		{
			"sampler":0,
			"source":0
		},
		{
			"sampler":0,
			"source":1
		},
		{
			"sampler":0,
			"source":2
		},
		{
			"sampler":0,
			"source":3
		},
		{
			"sampler":0,
			"source":4
		},
		{
			"sampler":0,
			"source":5
		}
	],
	"images":[
		{
			"bufferView":4,
			"mimeType":"image/png",
			"name":"ct_urban_baseColor"
		},
		{
			"bufferView":5,
			"mimeType":"image/png",
			"name":"ct_urban_metallicRoughness"
		},
		{
			"bufferView":10,
			"mimeType":"image/png",
			"name":"ct_urban_glass_baseColor"
		},
		{
			"bufferView":11,
			"mimeType":"image/png",
			"name":"ct_urban_glass_metallicRoughness"
		},
		{
			"bufferView":16,
			"mimeType":"image/png",
			"name":"texture_02"
		},
		{
			"bufferView":21,
			"mimeType":"image/png",
			"name":"texture_01"
		}
	],
	"accessors":[
		{
			"bufferView":0,
			"componentType":5126,
			"count":3537,
			"max":[
				0.19031621515750885,
				1.8157013654708862,
				0.648422360420227
			],
			"min":[
				-0.19986245036125183,
				-0.0007088723941706121,
				-0.621296226978302
			],
			"type":"VEC3"
		},
		{
			"bufferView":1,
			"componentType":5126,
			"count":3537,
			"type":"VEC3"
		},
		{
			"bufferView":2,
			"componentType":5126,
			"count":3537,
			"type":"VEC2"
		},
		{
			"bufferView":3,
			"componentType":5123,
			"count":14922,
			"type":"SCALAR"
		},
		{
			"bufferView":6,
			"componentType":5126,
			"count":43,
			"max":[
				0.16348868608474731,
				1.6735894680023193,
				0.08732201904058456
			],
			"min":[
				0.10031893104314804,
				1.6333461999893188,
				-0.06027846038341522
			],
			"type":"VEC3"
		},
		{
			"bufferView":7,
			"componentType":5126,
			"count":43,
			"type":"VEC3"
		},
		{
			"bufferView":8,
			"componentType":5126,
			"count":43,
			"type":"VEC2"
		},
		{
			"bufferView":9,
			"componentType":5123,
			"count":150,
			"type":"SCALAR"
		},
		{
			"bufferView":12,
			"componentType":5126,
			"count":72,
			"max":[
				0.3061009645462036,
				0.8774717450141907,
				0.30610084533691406
			],
			"min":[
				-0.3061009645462036,
				0.002897292375564575,
				-0.3061009645462036
			],
			"type":"VEC3"
		},
		{
			"bufferView":13,
			"componentType":5126,
			"count":72,
			"type":"VEC3"
		},
		{
			"bufferView":14,
			"componentType":5126,
			"count":72,
			"type":"VEC2"
		},
		{
			"bufferView":15,
			"componentType":5123,
			"count":132,
			"type":"SCALAR"
		},
		{
			"bufferView":17,
			"componentType":5126,
			"count":4,
			"max":[
				8.5,
				0,
				8.5
			],
			"min":[
				-8.5,
				0,
				-8.5
			],
			"type":"VEC3"
		},
		{
			"bufferView":18,
			"componentType":5126,
			"count":4,
			"type":"VEC3"
		},
		{
			"bufferView":19,
			"componentType":5126,
			"count":4,
			"type":"VEC2"
		},
		{
			"bufferView":20,
			"componentType":5123,
			"count":6,
			"type":"SCALAR"
		}
	],
	"bufferViews":[
		{
			"buffer":0,
			"byteLength":42444,
			"byteOffset":0,
			"target":34962
		},
		{
			"buffer":0,
			"byteLength":42444,
			"byteOffset":42444,
			"target":34962
		},
		{
			"buffer":0,
			"byteLength":28296,
			"byteOffset":84888,
			"target":34962
		},
		{
			"buffer":0,
			"byteLength":29844,
			"byteOffset":113184,
			"target":34963
		},
		{
			"buffer":0,
			"byteLength":1047871,
			"byteOffset":143028
		},
		{
			"buffer":0,
			"byteLength":359720,
			"byteOffset":1190900
		},
		{
			"buffer":0,
			"byteLength":516,
			"byteOffset":1550620,
			"target":34962
		},
		{
			"buffer":0,
			"byteLength":516,
			"byteOffset":1551136,
			"target":34962
		},
		{
			"buffer":0,
			"byteLength":344,
			"byteOffset":1551652,
			"target":34962
		},
		{
			"buffer":0,
			"byteLength":300,
			"byteOffset":1551996,
			"target":34963
		},
		{
			"buffer":0,
			"byteLength":21757,
			"byteOffset":1552296
		},
		{
			"buffer":0,
			"byteLength":4589,
			"byteOffset":1574056
		},
		{
			"buffer":0,
			"byteLength":864,
			"byteOffset":1578648,
			"target":34962
		},
		{
			"buffer":0,
			"byteLength":864,
			"byteOffset":1579512,
			"target":34962
		},
		{
			"buffer":0,
			"byteLength":576,
			"byteOffset":1580376,
			"target":34962
		},
		{
			"buffer":0,
			"byteLength":264,
			"byteOffset":1580952,
			"target":34963
		},
		{
			"buffer":0,
			"byteLength":2774,
			"byteOffset":1581216
		},
		{
			"buffer":0,
			"byteLength":48,
			"byteOffset":1583992,
			"target":34962
		},
		{
			"buffer":0,
			"byteLength":48,
			"byteOffset":1584040,
			"target":34962
		},
		{
			"buffer":0,
			"byteLength":32,
			"byteOffset":1584088,
			"target":34962
		},
		{
			"buffer":0,
			"byteLength":12,
			"byteOffset":1584120,
			"target":34963
		},
		{
			"buffer":0,
			"byteLength":9797,
			"byteOffset":1584132
		}
	],
	"samplers":[
		{
			"magFilter":9729,
			"minFilter":9987
		}
	],
	"buffers":[
		{
			"byteLength":1593932,
			"uri":"data:application/octet-stream;base64,"
		}
	]
}
