{
	"asset":{
		"generator":"Khronos glTF Blender I/O v3.6.27",
		"version":"2.0"
	},
	"scene":0,
	"scenes":[
		{
			"name":"Scene",
			"nodes":[
				0,
				1,
				2,
				3
			]
		}
	],
	"nodes":[
		{
			"mesh":0,
			"name":"Plane"
		},
		{
			"mesh":1,
			"name":"Cylinder"
		},
		{
			"mesh":2,
			"name":"Object_2",
			"translation":[
				0,
				0,
				-6.972873687744141
			]
		},
		{
			"mesh":3,
			"name":"Object_3",
			"translation":[
				0,
				0,
				-6.972873687744141
			]
		}
	],
	"materials":[
		{
			"doubleSided":true,
			"name":"Material.001",
			"pbrMetallicRoughness":{
				"baseColorTexture":{
					"index":0
				},
				"metallicFactor":0,
				"roughnessFactor":0.5
			}
		},
		{
			"doubleSided":true,
			"name":"Material.003",
			"pbrMetallicRoughness":{
				"baseColorTexture":{
					"index":1
				},
				"metallicFactor":0,
				"roughnessFactor":0.5
			}
		},
		{
			"doubleSided":true,
			"name":"ct_urban",
			"pbrMetallicRoughness":{
				"baseColorTexture":{
					"index":2
				},
				"metallicRoughnessTexture":{
					"index":3
				}
			}
		},
		{
			"alphaMode":"BLEND",
			"doubleSided":true,
			"name":"ct_urban_glass",
			"pbrMetallicRoughness":{
				"baseColorTexture":{
					"index":4
				},
				"metallicRoughnessTexture":{
					"index":5
				}
			}
		}
	],
	"meshes":[
		{
			"name":"Plane",
			"primitives":[
				{
					"attributes":{
						"POSITION":0,
						"NORMAL":1,
						"TEXCOORD_0":2
					},
					"indices":3,
					"material":0
				}
			]
		},
		{
			"name":"Cylinder",
			"primitives":[
				{
					"attributes":{
						"POSITION":4,
						"NORMAL":5,
						"TEXCOORD_0":6
					},
					"indices":7,
					"material":1
				}
			]
		},
		{
			"name":"Object_0",
			"primitives":[
				{
					"attributes":{
						"POSITION":8,
						"NORMAL":9,
						"TEXCOORD_0":10
					},
					"indices":11,
					"material":2
				}
			]
		},
		{
			"name":"Object_1",
			"primitives":[
				{
					"attributes":{
						"POSITION":12,
						"NORMAL":13,
						"TEXCOORD_0":14
					},
					"indices":15,
					"material":3
				}
			]
		}
	],
	"textures":[
		{
			"sampler":0,
			"source":0
		},
		{
			"sampler":0,
			"source":1
		},
		{
			"sampler":0,
			"source":2
		},
		{
			"sampler":0,
			"source":3
		},
		{
			"sampler":0,
			"source":4
		},
		{
			"sampler":0,
			"source":5
		}
	],
	"images":[
		{
			"bufferView":4,
			"mimeType":"image/png",
			"name":"texture_01"
		},
		{
			"bufferView":9,
			"mimeType":"image/png",
			"name":"texture_02"
		},
		{
			"bufferView":14,
			"mimeType":"image/png",
			"name":"ct_urban_baseColor"
		},
		{
			"bufferView":15,
			"mimeType":"image/png",
			"name":"ct_urban_metallicRoughness"
		},
		{
			"bufferView":20,
			"mimeType":"image/png",
			"name":"ct_urban_glass_baseColor"
		},
		{
			"bufferView":21,
			"mimeType":"image/png",
			"name":"ct_urban_glass_metallicRoughness"
		}
	],
	"accessors":[
		{
			"bufferView":0,
			"componentType":5126,
			"count":4,
			"max":[
				8.5,
				0,
				8.5
			],
			"min":[
				-8.5,
				0,
				-8.5
			],
			"type":"VEC3"
		},
		{
			"bufferView":1,
			"componentType":5126,
			"count":4,
			"type":"VEC3"
		},
		{
			"bufferView":2,
			"componentType":5126,
			"count":4,
			"type":"VEC2"
		},
		{
			"bufferView":3,
			"componentType":5123,
			"count":6,
			"type":"SCALAR"
		},
		{
			"bufferView":5,
			"componentType":5126,
			"count":72,
			"max":[
				0.3061009645462036,
				0.8774717450141907,
				2.306100845336914
			],
			"min":[
				-0.3061009645462036,
				0.002897292375564575,
				1.6938990354537964
			],
			"type":"VEC3"
		},
		{
			"bufferView":6,
			"componentType":5126,
			"count":72,
			"type":"VEC3"
		},
		{
			"bufferView":7,
			"componentType":5126,
			"count":72,
			"type":"VEC2"
		},
		{
			"bufferView":8,
			"componentType":5123,
			"count":132,
			"type":"SCALAR"
		},
		{
			"bufferView":10,
			"componentType":5126,
			"count":3537,
			"max":[
				0.6348593235015869,
				1.8157013654708862,
				0.20387937128543854
			],
			"min":[
				-0.6348591446876526,
				-0.0007088723941706121,
				-0.18629920482635498
			],
			"type":"VEC3"
		},
		{
			"bufferView":11,
			"componentType":5126,
			"count":3537,
			"type":"VEC3"
		},
		{
			"bufferView":12,
			"componentType":5126,
			"count":3537,
			"type":"VEC2"
		},
		{
			"bufferView":13,
			"componentType":5123,
			"count":14922,
			"type":"SCALAR"
		},
		{
			"bufferView":16,
			"componentType":5126,
			"count":43,
			"max":[
				0.07384159415960312,
				1.6735894680023193,
				0.14992547035217285
			],
			"min":[
				-0.07375887036323547,
				1.6333461999893188,
				0.08675573766231537
			],
			"type":"VEC3"
		},
		{
			"bufferView":17,
			"componentType":5126,
			"count":43,
			"type":"VEC3"
		},
		{
			"bufferView":18,
			"componentType":5126,
			"count":43,
			"type":"VEC2"
		},
		{
			"bufferView":19,
			"componentType":5123,
			"count":150,
			"type":"SCALAR"
		}
	],
	"bufferViews":[
		{
			"buffer":0,
			"byteLength":48,
			"byteOffset":0,
			"target":34962
		},
		{
			"buffer":0,
			"byteLength":48,
			"byteOffset":48,
			"target":34962
		},
		{
			"buffer":0,
			"byteLength":32,
			"byteOffset":96,
			"target":34962
		},
		{
			"buffer":0,
			"byteLength":12,
			"byteOffset":128,
			"target":34963
		},
		{
			"buffer":0,
			"byteLength":9797,
			"byteOffset":140
		},
		{
			"buffer":0,
			"byteLength":864,
			"byteOffset":9940,
			"target":34962
		},
		{
			"buffer":0,
			"byteLength":864,
			"byteOffset":10804,
			"target":34962
		},
		{
			"buffer":0,
			"byteLength":576,
			"byteOffset":11668,
			"target":34962
		},
		{
			"buffer":0,
			"byteLength":264,
			"byteOffset":12244,
			"target":34963
		},
		{
			"buffer":0,
			"byteLength":2774,
			"byteOffset":12508
		},
		{
			"buffer":0,
			"byteLength":42444,
			"byteOffset":15284,
			"target":34962
		},
		{
			"buffer":0,
			"byteLength":42444,
			"byteOffset":57728,
			"target":34962
		},
		{
			"buffer":0,
			"byteLength":28296,
			"byteOffset":100172,
			"target":34962
		},
		{
			"buffer":0,
			"byteLength":29844,
			"byteOffset":128468,
			"target":34963
		},
		{
			"buffer":0,
			"byteLength":1047871,
			"byteOffset":158312
		},
		{
			"buffer":0,
			"byteLength":359720,
			"byteOffset":1206184
		},
		{
			"buffer":0,
			"byteLength":516,
			"byteOffset":1565904,
			"target":34962
		},
		{
			"buffer":0,
			"byteLength":516,
			"byteOffset":1566420,
			"target":34962
		},
		{
			"buffer":0,
			"byteLength":344,
			"byteOffset":1566936,
			"target":34962
		},
		{
			"buffer":0,
			"byteLength":300,
			"byteOffset":1567280,
			"target":34963
		},
		{
			"buffer":0,
			"byteLength":21757,
			"byteOffset":1567580
		},
		{
			"buffer":0,
			"byteLength":4589,
			"byteOffset":1589340
		}
	],
	"samplers":[
		{
			"magFilter":9729,
			"minFilter":9987
		}
	],
	"buffers":[
		{
			"byteLength":1593932,
			"uri":"data:application/octet-stream;base64,"
		}
	]
}
